<svg xmlns="http://www.w3.org/2000/svg" width="920" height="540" viewBox="0 0 920 540" class="h-auto w-full"><defs><filter id="blueGlow"><feGaussianBlur stdDeviation="5" result="blur"></feGaussianBlur><feMerge><feMergeNode in="blur"></feMergeNode><feMergeNode in="SourceGraphic"></feMergeNode></feMerge></filter><linearGradient id="metal" x1="0" x2="1"><stop offset="0%" stop-color="#64748b"></stop><stop offset="50%" stop-color="#e2e8f0"></stop><stop offset="100%" stop-color="#475569"></stop></linearGradient><linearGradient id="coil" x1="0" x2="1"><stop offset="0%" stop-color="#b45309"></stop><stop offset="50%" stop-color="#facc15"></stop><stop offset="100%" stop-color="#92400e"></stop></linearGradient></defs><rect x="90" y="70" width="690" height="390" rx="30" fill="#1e293b"></rect><rect x="120" y="100" width="630" height="330" rx="22" fill="#334155"></rect><rect x="175" y="195" width="220" height="130" rx="18" fill="#64748b" opacity="0.55"></rect><path d="M 195 210 Q 205 260 195 310" fill="none" stroke="#94a3b8" stroke-width="5" stroke-linecap="round"></path><path d="M 205 210 Q 215 260 205 310" fill="none" stroke="#94a3b8" stroke-width="5" stroke-linecap="round"></path><path d="M 215 210 Q 225 260 215 310" fill="none" stroke="#94a3b8" stroke-width="5" stroke-linecap="round"></path><path d="M 225 210 Q 235 260 225 310" fill="none" stroke="#94a3b8" stroke-width="5" stroke-linecap="round"></path><path d="M 235 210 Q 245 260 235 310" fill="none" stroke="#94a3b8" stroke-width="5" stroke-linecap="round"></path><path d="M 245 210 Q 255 260 245 310" fill="none" stroke="#94a3b8" stroke-width="5" stroke-linecap="round"></path><path d="M 255 210 Q 265 260 255 310" fill="none" stroke="#94a3b8" stroke-width="5" stroke-linecap="round"></path><path d="M 265 210 Q 275 260 265 310" fill="none" stroke="#94a3b8" stroke-width="5" stroke-linecap="round"></path><path d="M 275 210 Q 285 260 275 310" fill="none" stroke="#94a3b8" stroke-width="5" stroke-linecap="round"></path><path d="M 285 210 Q 295 260 285 310" fill="none" stroke="#94a3b8" stroke-width="5" stroke-linecap="round"></path><path d="M 295 210 Q 305 260 295 310" fill="none" stroke="#94a3b8" stroke-width="5" stroke-linecap="round"></path><path d="M 305 210 Q 315 260 305 310" fill="none" stroke="#94a3b8" stroke-width="5" stroke-linecap="round"></path><path d="M 315 210 Q 325 260 315 310" fill="none" stroke="#94a3b8" stroke-width="5" stroke-linecap="round"></path><path d="M 325 210 Q 335 260 325 310" fill="none" stroke="#94a3b8" stroke-width="5" stroke-linecap="round"></path><path d="M 335 210 Q 345 260 335 310" fill="none" stroke="#94a3b8" stroke-width="5" stroke-linecap="round"></path><path d="M 345 210 Q 355 260 345 310" fill="none" stroke="#94a3b8" stroke-width="5" stroke-linecap="round"></path><path d="M 355 210 Q 365 260 355 310" fill="none" stroke="#94a3b8" stroke-width="5" stroke-linecap="round"></path><path d="M 365 210 Q 375 260 365 310" fill="none" stroke="#94a3b8" stroke-width="5" stroke-linecap="round"></path><text x="225" y="355" fill="#e2e8f0" font-size="18" font-weight="700">Coil A1-A2</text><rect x="420" y="160" width="58" height="205" rx="8" fill="url(#metal)"></rect><text x="400" y="395" fill="#e2e8f0" font-size="18" font-weight="700">Iron Core</text><g style="transform:translateX(0px);transition:transform 500ms ease"><rect x="585" y="210" width="150" height="38" rx="7" fill="url(#metal)"></rect><rect x="585" y="275" width="150" height="38" rx="7" fill="url(#metal)"></rect><rect x="720" y="195" width="28" height="135" rx="6" fill="#cbd5e1"></rect></g><text x="585" y="365" fill="#e2e8f0" font-size="18" font-weight="700">Armature</text><path d="M775 195 L805 215 L775 235 L805 255 L775 275 L805 295" fill="none" stroke="#fb923c" stroke-width="5" stroke-linecap="round" style="transition:all 500ms ease"></path><text x="770" y="330" fill="#e2e8f0" font-size="16" font-weight="700">Spring</text><g><line x1="210" y1="60" x2="210" y2="135" stroke="#475569" stroke-width="10"></line><line x1="210" y1="390" x2="210" y2="475" stroke="#475569" stroke-width="10"></line><circle cx="210" cy="145" r="13" fill="#f59e0b"></circle><circle cx="210" cy="380" r="13" fill="#f59e0b"></circle><line x1="210" y1="165" x2="210" y2="310" stroke="#f97316" stroke-width="9" stroke-linecap="round" style="transition:all 500ms ease"></line><text x="192" y="45" fill="#334155" font-size="17" font-weight="800">L1</text><text x="192" y="505" fill="#334155" font-size="17" font-weight="800">T1</text></g><g><line x1="375" y1="60" x2="375" y2="135" stroke="#475569" stroke-width="10"></line><line x1="375" y1="390" x2="375" y2="475" stroke="#475569" stroke-width="10"></line><circle cx="375" cy="145" r="13" fill="#f59e0b"></circle><circle cx="375" cy="380" r="13" fill="#f59e0b"></circle><line x1="375" y1="165" x2="375" y2="310" stroke="#f97316" stroke-width="9" stroke-linecap="round" style="transition:all 500ms ease"></line><text x="357" y="45" fill="#334155" font-size="17" font-weight="800">L2</text><text x="357" y="505" fill="#334155" font-size="17" font-weight="800">T2</text></g><g><line x1="540" y1="60" x2="540" y2="135" stroke="#475569" stroke-width="10"></line><line x1="540" y1="390" x2="540" y2="475" stroke="#475569" stroke-width="10"></line><circle cx="540" cy="145" r="13" fill="#f59e0b"></circle><circle cx="540" cy="380" r="13" fill="#f59e0b"></circle><line x1="540" y1="165" x2="540" y2="310" stroke="#f97316" stroke-width="9" stroke-linecap="round" style="transition:all 500ms ease"></line><text x="522" y="45" fill="#334155" font-size="17" font-weight="800">L3</text><text x="522" y="505" fill="#334155" font-size="17" font-weight="800">T3</text></g><circle cx="845" cy="155" r="24" fill="#64748b"></circle><text x="815" y="198" fill="#334155" font-size="15" font-weight="800">Coil</text><circle cx="845" cy="255" r="24" fill="#64748b"></circle><text x="805" y="298" fill="#334155" font-size="15" font-weight="800">Contact</text><circle cx="845" cy="355" r="24" fill="#64748b"></circle><text x="815" y="398" fill="#334155" font-size="15" font-weight="800">Load</text></svg>