<svg xmlns="http://www.w3.org/2000/svg" viewBox="0 0 620 720" width="620" height="720" role="img" aria-label="CJX2 magnetic contactor">
  <defs>
    <linearGradient id="blackBody" x1="0" x2="1">
      <stop offset="0%" stop-color="#151817" />
      <stop offset="50%" stop-color="#2a2d2c" />
      <stop offset="100%" stop-color="#111313" />
    </linearGradient>
    <linearGradient id="cream" x1="0" x2="1">
      <stop offset="0%" stop-color="#d7d8cf" />
      <stop offset="45%" stop-color="#f0f1e8" />
      <stop offset="100%" stop-color="#c6c7bd" />
    </linearGradient>
    <radialGradient id="screw" cx="50%" cy="45%" r="60%">
      <stop offset="0%" stop-color="#f8faf7" />
      <stop offset="45%" stop-color="#6f7772" />
      <stop offset="100%" stop-color="#0b0f0e" />
    </radialGradient>
    <linearGradient id="bluePlastic" x1="0" x2="1">
      <stop offset="0%" stop-color="#004fbe" />
      <stop offset="50%" stop-color="#116bdf" />
      <stop offset="100%" stop-color="#003f9e" />
    </linearGradient>
  </defs>
  <rect width="620" height="720" fill="#ffffff" />
  <rect x="121" y="58" width="382" height="612" rx="12" fill="#000000" opacity="0.12" />
  <rect x="150" y="32" width="30" height="58" rx="6" fill="#1e2320" />
  <rect x="255" y="32" width="30" height="58" rx="6" fill="#1e2320" />
  <rect x="365" y="32" width="30" height="58" rx="6" fill="#1e2320" />
  <rect x="475" y="32" width="30" height="58" rx="6" fill="#1e2320" />
  <path d="M120 72 H500 V190 H112 V92 Q112 72 120 72Z" fill="url(#cream)" stroke="#b8b9ae" stroke-width="2" />
  <g>
    <circle cx="190" cy="135" r="35" fill="#cfd0c5" />
    <circle cx="190" cy="142" r="24" fill="url(#screw)" />
    <path d="M172 148 Q190 132 208 148" stroke="#111111" stroke-width="5" fill="none" />
    <text x="160" y="105" font-size="20" fill="#8d8e86" font-weight="600">1</text>
    <text x="195" y="105" font-size="20" fill="#8d8e86" font-weight="600">L1</text>
  </g>
  <g>
    <circle cx="310" cy="135" r="35" fill="#cfd0c5" />
    <circle cx="310" cy="142" r="24" fill="url(#screw)" />
    <path d="M292 148 Q310 132 328 148" stroke="#111111" stroke-width="5" fill="none" />
    <text x="280" y="105" font-size="20" fill="#8d8e86" font-weight="600">3</text>
    <text x="315" y="105" font-size="20" fill="#8d8e86" font-weight="600">L2</text>
  </g>
  <g>
    <circle cx="430" cy="135" r="35" fill="#cfd0c5" />
    <circle cx="430" cy="142" r="24" fill="url(#screw)" />
    <path d="M412 148 Q430 132 448 148" stroke="#111111" stroke-width="5" fill="none" />
    <text x="400" y="105" font-size="20" fill="#8d8e86" font-weight="600">5</text>
    <text x="435" y="105" font-size="20" fill="#8d8e86" font-weight="600">L3</text>
  </g>
  <rect x="500" y="118" width="42" height="77" rx="5" fill="url(#cream)" stroke="#babbb1" />
  <circle cx="520" cy="158" r="20" fill="url(#screw)" />
  <rect x="546" y="105" width="18" height="95" rx="3" fill="#333735" />
  <rect x="112" y="190" width="390" height="330" fill="url(#blackBody)" stroke="#0b0c0c" />
  <rect x="112" y="225" width="390" height="2" fill="#464a48" opacity="0.6" />
  <rect x="112" y="380" width="390" height="2" fill="#464a48" opacity="0.6" />
  <text x="138" y="226" font-size="24" fill="#c7cbc7" font-weight="500">CJX2</text>
  <text x="138" y="252" font-size="24" fill="#c7cbc7" font-weight="500">5011</text>
  <text x="500" y="220" font-size="18" fill="#c7cbc7">21 NC</text>
  <text x="500" y="244" font-size="18" fill="#c7cbc7">13 NO</text>
  <text x="510" y="336" font-size="18" fill="#c7cbc7">11</text>
  <text x="500" y="470" font-size="18" fill="#c7cbc7">14 NO</text>
  <text x="500" y="494" font-size="18" fill="#c7cbc7">22 NC</text>
  <g>
    <rect x="145" y="285" width="30" height="32" fill="#070909" />
    <rect x="153" y="292" width="12" height="20" fill="#2b2e2d" />
    <rect x="145" y="395" width="30" height="32" fill="#070909" />
    <rect x="153" y="402" width="12" height="20" fill="#2b2e2d" />
    <rect x="210" y="285" width="30" height="32" fill="#070909" />
    <rect x="218" y="292" width="12" height="20" fill="#2b2e2d" />
    <rect x="210" y="395" width="30" height="32" fill="#070909" />
    <rect x="218" y="402" width="12" height="20" fill="#2b2e2d" />
    <rect x="352" y="285" width="30" height="32" fill="#070909" />
    <rect x="360" y="292" width="12" height="20" fill="#2b2e2d" />
    <rect x="352" y="395" width="30" height="32" fill="#070909" />
    <rect x="360" y="402" width="12" height="20" fill="#2b2e2d" />
    <rect x="420" y="285" width="30" height="32" fill="#070909" />
    <rect x="428" y="292" width="12" height="20" fill="#2b2e2d" />
    <rect x="420" y="395" width="30" height="32" fill="#070909" />
    <rect x="428" y="402" width="12" height="20" fill="#2b2e2d" />
    <rect x="470" y="285" width="30" height="32" fill="#070909" />
    <rect x="478" y="292" width="12" height="20" fill="#2b2e2d" />
    <rect x="470" y="395" width="30" height="32" fill="#070909" />
    <rect x="478" y="402" width="12" height="20" fill="#2b2e2d" />
  </g>
  <g>
    <rect x="130" y="315" width="368" height="72" rx="7" fill="#061317" />
    <path d="M140 322 H220 V342 H254 V322 H305 V390 H254 V370 H220 V390 H140 Z" fill="url(#bluePlastic)" />
    <path d="M318 322 H420 V342 H465 V322 H490 V390 H465 V370 H420 V390 H318 Z" fill="url(#bluePlastic)" />
    <rect x="245" y="312" width="38" height="88" rx="3" fill="#0757c7" />
    <rect x="334" y="323" width="17" height="68" rx="2" fill="#0e4fb0" />
    <rect x="150" y="332" width="34" height="38" rx="4" fill="#1f73dc" opacity="0.8" />
    <rect x="392" y="330" width="58" height="42" rx="3" fill="#2179e3" opacity="0.7" />
  </g>
  <rect x="275" y="410" width="130" height="48" rx="2" fill="#e9ebe6" />
  <circle cx="364" cy="196" r="14" fill="url(#screw)" />
  <circle cx="360" cy="520" r="14" fill="url(#screw)" />
  <path d="M112 520 H502 V642 H120 Q112 642 112 632 Z" fill="url(#cream)" stroke="#b8b9ae" stroke-width="2" />
  <g>
    <circle cx="190" cy="575" r="35" fill="#cfd0c5" />
    <circle cx="190" cy="568" r="24" fill="url(#screw)" />
    <path d="M172 562 Q190 578 208 562" stroke="#111111" stroke-width="5" fill="none" />
    <text x="160" y="628" font-size="20" fill="#8d8e86" font-weight="600">2</text>
    <text x="195" y="628" font-size="20" fill="#8d8e86" font-weight="600">T1</text>
  </g>
  <g>
    <circle cx="310" cy="575" r="35" fill="#cfd0c5" />
    <circle cx="310" cy="568" r="24" fill="url(#screw)" />
    <path d="M292 562 Q310 578 328 562" stroke="#111111" stroke-width="5" fill="none" />
    <text x="280" y="628" font-size="20" fill="#8d8e86" font-weight="600">4</text>
    <text x="315" y="628" font-size="20" fill="#8d8e86" font-weight="600">T2</text>
  </g>
  <g>
    <circle cx="430" cy="575" r="35" fill="#cfd0c5" />
    <circle cx="430" cy="568" r="24" fill="url(#screw)" />
    <path d="M412 562 Q430 578 448 562" stroke="#111111" stroke-width="5" fill="none" />
    <text x="400" y="628" font-size="20" fill="#8d8e86" font-weight="600">6</text>
    <text x="435" y="628" font-size="20" fill="#8d8e86" font-weight="600">T3</text>
  </g>
  <rect x="150" y="638" width="33" height="23" rx="4" fill="#101312" />
  <rect x="265" y="638" width="33" height="23" rx="4" fill="#101312" />
  <rect x="385" y="638" width="33" height="23" rx="4" fill="#101312" />
  <rect x="475" y="638" width="33" height="23" rx="4" fill="#101312" />
  <rect x="500" y="500" width="42" height="72" rx="5" fill="url(#cream)" stroke="#babbb1" />
  <circle cx="520" cy="532" r="20" fill="url(#screw)" />
  <rect x="546" y="488" width="18" height="96" rx="3" fill="#333735" />
</svg>
