<svg xmlns="http://www.w3.org/2000/svg" width="720" height="560" viewBox="0 0 720 560" class="h-auto w-full" role="img" aria-label="Magnetic contactor internal cutaway diagram"><defs><linearGradient id="housing" x1="0" x2="1"><stop offset="0%" stop-color="#111827"></stop><stop offset="50%" stop-color="#2f3a46"></stop><stop offset="100%" stop-color="#0f172a"></stop></linearGradient><linearGradient id="terminal" x1="0" x2="1"><stop offset="0%" stop-color="#d8d8ce"></stop><stop offset="50%" stop-color="#f5f5eb"></stop><stop offset="100%" stop-color="#c7c7bd"></stop></linearGradient><linearGradient id="steel" x1="0" x2="1"><stop offset="0%" stop-color="#64748b"></stop><stop offset="50%" stop-color="#cbd5e1"></stop><stop offset="100%" stop-color="#475569"></stop></linearGradient><filter id="glow"><feGaussianBlur stdDeviation="8" result="blur"></feGaussianBlur><feMerge><feMergeNode in="blur"></feMergeNode><feMergeNode in="SourceGraphic"></feMergeNode></feMerge></filter></defs><rect x="175" y="55" width="370" height="455" rx="18" fill="#0f172a" opacity="0.08"></rect><g transform="translate(0 0)" class="cursor-pointer"><rect x="185" y="70" width="350" height="70" rx="10" fill="url(#terminal)" stroke="#b6b7ad" stroke-width="2"></rect><rect x="185" y="430" width="350" height="70" rx="10" fill="url(#terminal)" stroke="#b6b7ad" stroke-width="2"></rect><g><circle cx="245" cy="105" r="22" fill="#334155"></circle><path d="M232 105 H258" stroke="#e2e8f0" stroke-width="4"></path><text x="227" y="88" font-size="12" font-weight="700" fill="#64748b">1/L1</text><circle cx="245" cy="465" r="22" fill="#334155"></circle><path d="M232 465 H258" stroke="#e2e8f0" stroke-width="4"></path><text x="227" y="494" font-size="12" font-weight="700" fill="#64748b">2/T1</text></g><g><circle cx="360" cy="105" r="22" fill="#334155"></circle><path d="M347 105 H373" stroke="#e2e8f0" stroke-width="4"></path><text x="342" y="88" font-size="12" font-weight="700" fill="#64748b">3/L2</text><circle cx="360" cy="465" r="22" fill="#334155"></circle><path d="M347 465 H373" stroke="#e2e8f0" stroke-width="4"></path><text x="342" y="494" font-size="12" font-weight="700" fill="#64748b">4/T2</text></g><g><circle cx="475" cy="105" r="22" fill="#334155"></circle><path d="M462 105 H488" stroke="#e2e8f0" stroke-width="4"></path><text x="457" y="88" font-size="12" font-weight="700" fill="#64748b">5/L3</text><circle cx="475" cy="465" r="22" fill="#334155"></circle><path d="M462 465 H488" stroke="#e2e8f0" stroke-width="4"></path><text x="457" y="494" font-size="12" font-weight="700" fill="#64748b">6/T3</text></g></g><rect x="185" y="140" width="350" height="290" rx="8" fill="url(#housing)" stroke="#020617" stroke-width="2"></rect><rect x="210" y="165" width="300" height="235" rx="10" fill="#f8fafc" opacity="0.1" stroke="#475569" stroke-dasharray="8 8"></rect><g transform="translate(0 0)" class="cursor-pointer"><rect x="247" y="240" width="226" height="94" rx="14" fill="#fef3c7" opacity="0" filter="url(#glow)"></rect><rect x="250" y="245" width="220" height="85" rx="12" fill="#7c2d12" opacity="0.95" stroke="#431407" stroke-width="2"></rect><path d="M 262 255 Q 268 287 262 320" fill="none" stroke="#f59e0b" stroke-width="4" stroke-linecap="round"></path><path d="M 270 255 Q 276 287 270 320" fill="none" stroke="#f59e0b" stroke-width="4" stroke-linecap="round"></path><path d="M 278 255 Q 284 287 278 320" fill="none" stroke="#f59e0b" stroke-width="4" stroke-linecap="round"></path><path d="M 286 255 Q 292 287 286 320" fill="none" stroke="#f59e0b" stroke-width="4" stroke-linecap="round"></path><path d="M 294 255 Q 300 287 294 320" fill="none" stroke="#f59e0b" stroke-width="4" stroke-linecap="round"></path><path d="M 302 255 Q 308 287 302 320" fill="none" stroke="#f59e0b" stroke-width="4" stroke-linecap="round"></path><path d="M 310 255 Q 316 287 310 320" fill="none" stroke="#f59e0b" stroke-width="4" stroke-linecap="round"></path><path d="M 318 255 Q 324 287 318 320" fill="none" stroke="#f59e0b" stroke-width="4" stroke-linecap="round"></path><path d="M 326 255 Q 332 287 326 320" fill="none" stroke="#f59e0b" stroke-width="4" stroke-linecap="round"></path><path d="M 334 255 Q 340 287 334 320" fill="none" stroke="#f59e0b" stroke-width="4" stroke-linecap="round"></path><path d="M 342 255 Q 348 287 342 320" fill="none" stroke="#f59e0b" stroke-width="4" stroke-linecap="round"></path><path d="M 350 255 Q 356 287 350 320" fill="none" stroke="#f59e0b" stroke-width="4" stroke-linecap="round"></path><path d="M 358 255 Q 364 287 358 320" fill="none" stroke="#f59e0b" stroke-width="4" stroke-linecap="round"></path><path d="M 366 255 Q 372 287 366 320" fill="none" stroke="#f59e0b" stroke-width="4" stroke-linecap="round"></path><path d="M 374 255 Q 380 287 374 320" fill="none" stroke="#f59e0b" stroke-width="4" stroke-linecap="round"></path><path d="M 382 255 Q 388 287 382 320" fill="none" stroke="#f59e0b" stroke-width="4" stroke-linecap="round"></path><path d="M 390 255 Q 396 287 390 320" fill="none" stroke="#f59e0b" stroke-width="4" stroke-linecap="round"></path><path d="M 398 255 Q 404 287 398 320" fill="none" stroke="#f59e0b" stroke-width="4" stroke-linecap="round"></path><path d="M 406 255 Q 412 287 406 320" fill="none" stroke="#f59e0b" stroke-width="4" stroke-linecap="round"></path><path d="M 414 255 Q 420 287 414 320" fill="none" stroke="#f59e0b" stroke-width="4" stroke-linecap="round"></path><path d="M 422 255 Q 428 287 422 320" fill="none" stroke="#f59e0b" stroke-width="4" stroke-linecap="round"></path><path d="M 430 255 Q 436 287 430 320" fill="none" stroke="#f59e0b" stroke-width="4" stroke-linecap="round"></path><path d="M 438 255 Q 444 287 438 320" fill="none" stroke="#f59e0b" stroke-width="4" stroke-linecap="round"></path><path d="M 446 255 Q 452 287 446 320" fill="none" stroke="#f59e0b" stroke-width="4" stroke-linecap="round"></path><circle cx="238" cy="287" r="9" fill="#94a3b8"></circle><circle cx="482" cy="287" r="9" fill="#94a3b8"></circle><text x="220" y="290" font-size="13" font-weight="800" fill="#e2e8f0">A1</text><text x="490" y="290" font-size="13" font-weight="800" fill="#e2e8f0">A2</text></g><g transform="translate(0 0)" class="cursor-pointer"><rect x="335" y="180" width="50" height="185" rx="8" fill="url(#steel)" stroke="#334155" stroke-width="2"></rect><rect x="347" y="190" width="8" height="165" rx="4" fill="#f8fafc" opacity="0.35"></rect></g><g transform="translate(0 0)" class="cursor-pointer transition-transform duration-300"><rect x="250" y="170" width="220" height="22" rx="5" fill="#475569" stroke="#1e293b" stroke-width="2"></rect><rect x="280" y="192" width="160" height="18" rx="4" fill="#64748b"></rect><circle cx="250" cy="181" r="9" fill="#ef4444"></circle></g><g transform="translate(0 0)" class="cursor-pointer"><path d="M 225 175 L 247 183 L 225 191 L 247 199 L 225 207 L 247 215 L 225 223 L 247 231 L 225 239" fill="none" stroke="#94a3b8" stroke-width="4" stroke-linecap="round"></path><line x1="225" y1="170" x2="247" y2="170" stroke="#94a3b8" stroke-width="4"></line><line x1="225" y1="239" x2="247" y2="239" stroke="#94a3b8" stroke-width="4"></line></g><g transform="translate(0 0)" class="cursor-pointer"><g><line x1="245" y1="140" x2="245" y2="226" stroke="#f97316" stroke-width="7" stroke-linecap="round"></line><line x1="245" y1="344" x2="245" y2="430" stroke="#f97316" stroke-width="7" stroke-linecap="round"></line><circle cx="245" cy="226" r="12" fill="#fbbf24" stroke="#92400e" stroke-width="2"></circle><circle cx="245" cy="326" r="12" fill="#fbbf24" stroke="#92400e" stroke-width="2"></circle><text x="236" y="157" font-size="12" font-weight="800" fill="#e2e8f0">L1</text><text x="236" y="420" font-size="12" font-weight="800" fill="#e2e8f0">T1</text></g><g><line x1="360" y1="140" x2="360" y2="226" stroke="#f97316" stroke-width="7" stroke-linecap="round"></line><line x1="360" y1="344" x2="360" y2="430" stroke="#f97316" stroke-width="7" stroke-linecap="round"></line><circle cx="360" cy="226" r="12" fill="#fbbf24" stroke="#92400e" stroke-width="2"></circle><circle cx="360" cy="326" r="12" fill="#fbbf24" stroke="#92400e" stroke-width="2"></circle><text x="351" y="157" font-size="12" font-weight="800" fill="#e2e8f0">L2</text><text x="351" y="420" font-size="12" font-weight="800" fill="#e2e8f0">T2</text></g><g><line x1="475" y1="140" x2="475" y2="226" stroke="#f97316" stroke-width="7" stroke-linecap="round"></line><line x1="475" y1="344" x2="475" y2="430" stroke="#f97316" stroke-width="7" stroke-linecap="round"></line><circle cx="475" cy="226" r="12" fill="#fbbf24" stroke="#92400e" stroke-width="2"></circle><circle cx="475" cy="326" r="12" fill="#fbbf24" stroke="#92400e" stroke-width="2"></circle><text x="466" y="157" font-size="12" font-weight="800" fill="#e2e8f0">L3</text><text x="466" y="420" font-size="12" font-weight="800" fill="#e2e8f0">T3</text></g></g><g transform="translate(0 0)" class="cursor-pointer"><rect x="520" y="190" width="70" height="155" rx="10" fill="#1e293b" stroke="#334155" stroke-width="2"></rect><text x="535" y="215" font-size="12" font-weight="800" fill="#cbd5e1">AUX</text><line x1="540" y1="240" x2="570" y2="260" stroke="#38bdf8" stroke-width="5" stroke-linecap="round"></line><text x="532" y="232" font-size="10" fill="#e2e8f0">13-14 NO</text><line x1="540" y1="300" x2="570" y2="300" stroke="#fb7185" stroke-width="5" stroke-linecap="round"></line><text x="532" y="292" font-size="10" fill="#e2e8f0">21-22 NC</text></g><g><g class="pointer-events-none"><path d="M 65 125 L 220 100" stroke="#64748b" stroke-width="1.5" stroke-dasharray="4 4" fill="none"></path><rect x="57" y="103" width="80.8" height="24" rx="6" fill="#f8fafc" stroke="#cbd5e1"></rect><text x="65" y="120" font-size="12" font-weight="700" fill="#334155">Terminals</text></g><g class="pointer-events-none"><path d="M 70 265 L 270 280" stroke="#64748b" stroke-width="1.5" stroke-dasharray="4 4" fill="none"></path><rect x="62" y="243" width="44.8" height="24" rx="6" fill="#f8fafc" stroke="#cbd5e1"></rect><text x="70" y="260" font-size="12" font-weight="700" fill="#334155">Coil</text></g><g class="pointer-events-none"><path d="M 72 335 L 360 250" stroke="#64748b" stroke-width="1.5" stroke-dasharray="4 4" fill="none"></path><rect x="64" y="313" width="80.8" height="24" rx="6" fill="#f8fafc" stroke="#cbd5e1"></rect><text x="72" y="330" font-size="12" font-weight="700" fill="#334155">Iron Core</text></g><g class="pointer-events-none"><path d="M 75 190 L 235 205" stroke="#64748b" stroke-width="1.5" stroke-dasharray="4 4" fill="none"></path><rect x="67" y="168" width="59.2" height="24" rx="6" fill="#f8fafc" stroke="#cbd5e1"></rect><text x="75" y="185" font-size="12" font-weight="700" fill="#334155">Spring</text></g><g class="pointer-events-none"><path d="M 500 160 L 390 182" stroke="#64748b" stroke-width="1.5" stroke-dasharray="4 4" fill="none"></path><rect x="492" y="138" width="73.6" height="24" rx="6" fill="#f8fafc" stroke="#cbd5e1"></rect><text x="500" y="155" font-size="12" font-weight="700" fill="#334155">Armature</text></g><g class="pointer-events-none"><path d="M 575 370 L 475 315" stroke="#64748b" stroke-width="1.5" stroke-dasharray="4 4" fill="none"></path><rect x="567" y="348" width="109.60000000000001" height="24" rx="6" fill="#f8fafc" stroke="#cbd5e1"></rect><text x="575" y="365" font-size="12" font-weight="700" fill="#334155">Main Contacts</text></g><g class="pointer-events-none"><path d="M 575 250 L 555 255" stroke="#64748b" stroke-width="1.5" stroke-dasharray="4 4" fill="none"></path><rect x="567" y="228" width="102.4" height="24" rx="6" fill="#f8fafc" stroke="#cbd5e1"></rect><text x="575" y="245" font-size="12" font-weight="700" fill="#334155">Aux Contacts</text></g></g></svg>